# This file uses centimeters as units for non-parametric coordinates.

mtllib pasto_OBJ.mtl
g default
v 2850.222214 0.000213 1307.280064
v 2850.222214 -0.000203 -1243.510342
v -1231.042282 -0.000203 -1243.510342
v -1231.042282 0.000213 1307.280064
vt 0.000000 0.179688
vt 1.000000 0.179688
vt 0.000000 0.804688
vt 1.000000 0.804688
vn 0.000000 1.000000 -0.000000
vn 0.000000 1.000000 -0.000000
vn 0.000000 1.000000 -0.000000
vn 0.000000 1.000000 -0.000000
s off
g Ground
usemtl GroundSG
f 3/3/1 4/1/2 1/2/3 2/4/4
